<?xml version="1.0" encoding="utf-8"?>
<svg version="1.1"
	 id="svg2" xmlns:svg="http://www.w3.org/2000/svg" xmlns:dc="http://purl.org/dc/elements/1.1/" xmlns:cc="http://creativecommons.org/ns#" xmlns:rdf="http://www.w3.org/1999/02/22-rdf-syntax-ns#"
	 xmlns="http://www.w3.org/2000/svg" xmlns:xlink="http://www.w3.org/1999/xlink" x="0px" y="0px"
	 viewBox="1184 -53.887 1312 1576.9064" enable-background="new 1184 -53.887 1312 1576.9064" xml:space="preserve">
<path id="path4" d="M2395.5491,738.9907c0,159.2697-32.2605,255.9593-140.3201,255.9593
	c-60.6389,0-123.219-45.4792-123.219-123.2191c0-94.8408,64.4287-199.1102,64.4287-316.6908
	c0-73.95-26.5295-147.8999-85.3198-212.3288c0,165.0009-91.0509,221.8499-178.2194,221.8499
	c-108.0594,0-229.4298-91.0509-229.4298-292.0099c0-75.8911,17.101-168.7908,58.7903-278.6989
	c-185.7993,108.0594-231.371,254.1106-231.371,390.6407s47.4204,263.5392,47.4204,333.6992
	c0,77.7399-62.5802,123.2191-123.2191,123.2191c-91.0508,0.0001-132.74-60.6389-132.74-233.2197
	c-60.639,87.261-98.6309,200.959-98.6309,341.2791c0,209.1318,113.1312,418.1881,407.9291,501.293
	c57.4235,16.1879,116.8264,24.2301,176.4873,24.5011c29.6125,0.1345,60.9823-0.6163,94.4443-2.4132
	c292.0099,0,553.7003-200.9591,553.7003-477.8093C2456.2805,902.0504,2427.8098,793.991,2395.5491,738.9907z"/>
</svg>
